<?xml version="1.0" encoding="utf-8"?>
<!-- Generator: Adobe Illustrator 26.3.1, SVG Export Plug-In . SVG Version: 6.00 Build 0)  -->
<svg version="1.1" id="레이어_1" xmlns="http://www.w3.org/2000/svg" xmlns:xlink="http://www.w3.org/1999/xlink" x="0px"
	 y="0px" viewBox="0 0 595.3 1006.3" style="enable-background:new 0 0 595.3 1006.3;" xml:space="preserve">
<style type="text/css">
	.st0{stroke:#FFFFFF;stroke-width:3;stroke-miterlimit:10;}
	.st1{fill:#FFFFFF;stroke:#FFFFFF;stroke-width:3;stroke-miterlimit:10;}
</style>
<path class="st0" d="M483.2,407.5c-16.4-49.4-33.6-83.2-51.9-119.1C369.4,166.9,297.8,82.3,297.7,82.3c-0.1-0.1-0.1-0.1-0.1-0.1
	c0,0,0,0,0,0c0,0,0,0,0,0c-10.5,11.9-24.2,28-39.7,47.5c-8.7,10.9-27.5,34.8-45,61c-25.1,37.5-39.7,68.3-55.8,102.6
	c-25.3,53.9-39.2,83-51.5,126.3C82,502.5,81.6,569,81.9,590.1c0.4,32.3,1.1,66.2,13.4,109.4c12.8,45.1,32.4,79.4,47.4,101.6
	c8.7,0.2,17.4,0.3,26.1,0.5c101.4,1.6,201.3,0.9,299.7-2c7.5-15.1,17.4-36.9,26.1-64.1c5.6-17.4,26.3-85.6,20.5-177.7
	C511,492.4,495.5,444.5,483.2,407.5z"/>
<path class="st0" d="M90.8,717.3C58,758.3,37.7,794.8,25,821.3c-7,14.6-10.1,22.9-6.5,27.4c10.3,12.7,66.9-15.8,117.6-44.8"/>
<path class="st0" d="M513.5,711c35.3,38.9,57.9,74,72.3,99.6c7.9,14.1,11.5,22.2,8.2,26.9c-9.4,13.3-67.8-11.5-120.3-37.2"/>
<path class="st0" d="M142.8,806c0,0,57.6-2.4,60.7-2.5c30.4-1.2,97.5-2.4,257.4-2.2c7.4,8.6,16.7,21.1,24.2,37.9
	c10.1,22.5,12.7,42.9,13.3,56c-5.8-5.5-19.1-16.5-39.6-21.3c-16.8-3.9-30.9-1.7-38.5,0c2.2,9,3.8,21.4,1.9,35.7
	C417,948.5,389,971.8,381,978c16.8-15,20.7-37.8,11.3-53.5c-9.2-15.2-27.4-17.5-30-17.8c-9.1,7.3-22.7,20-33.8,39.4
	c-14,24.5-17.1,47.6-17.8,60.2c-7.1-5.2-27.3-21.3-36.6-50.8c-8.5-26.7-3.2-49.4-0.7-58c-4,9-10.2,20-19.9,30.8
	c-24.1,27-54.3,35.6-67.6,38.5c3.8-3.8,25.6-26.6,23.5-60.1c-1.2-18.8-9.4-32.4-13.9-38.8c-8.6,1.1-19.9,3.9-30.2,11.6
	c-26.2,19.5-23.5,53.2-32.8,53.5c-10,0.3-28.3-38.3-17.8-68.5c2.3-6.5,4.2-7.7,19.7-40.4C135.3,821.7,142.8,806,142.8,806z"/>
<path class="st1" d="M228.9,816.6c5.7-3,11-3.2,16-3.3c24-0.6,43.3,1,49.7,1.5c16.7,1.1,14.5-1,53.5-2.3c18.9-0.6,34.3-0.6,44.1-0.5
	c0.7,6,1.6,12.3,2.7,18.8c1.9,10.9,4.1,21.1,6.6,30.5c-2.9-3-9.5-9-19.7-11.6c-8.4-2.1-15.4-0.9-19.1,0c1.1,4.9,1.9,11.6,0.9,19.4
	c-2.6,21.2-16.5,33.9-20.5,37.3c8.3-8.1,10.3-20.6,5.6-29.1c-4.6-8.3-13.6-9.6-14.9-9.7c-4.5,4-11.3,10.9-16.8,21.5
	c-7,13.4-8.5,25.9-8.9,32.8c-3.5-2.8-13.6-11.6-18.2-27.7c-4.2-14.6-1.6-26.9-0.4-31.6c-2,4.9-5.1,10.9-9.9,16.8
	c-12,14.7-27,19.4-33.6,21c1.9-2.1,12.7-14.5,11.7-32.7c-0.6-10.2-4.7-17.7-6.9-21.1c-4.3,0.6-9.9,2.1-15,6.3
	c-13.4,10.9-12,29-16.3,29.1c-4.6,0.1-12.5-18.8-8.9-37.3C211.2,841.4,214.7,824.1,228.9,816.6z"/>
<path class="st0" d="M493.5,158.8"/>
</svg>
