<?xml version="1.0" encoding="UTF-8"?><svg id="_이어_1" xmlns="http://www.w3.org/2000/svg" viewBox="0 0 582.64 773.34"><defs><style>.cls-1{fill:#000000;stroke:#fff;stroke-miterlimit:10;stroke-width:3px;}</style></defs><path class="cls-1" d="M467.7,327.48c-16.39-49.41-33.62-83.23-51.9-119.08C353.88,86.91,282.28,2.35,282.23,2.31c-.05-.05-.05-.07-.08-.1h0c-10.49,11.9-24.22,27.96-39.67,47.5-8.66,10.95-27.52,34.8-45.04,61-25.09,37.51-39.67,68.25-55.78,102.55-25.3,53.88-39.16,83-51.52,126.3-23.66,82.94-23.98,149.43-23.71,170.53,.42,32.27,1.11,66.23,13.37,109.35,12.84,45.15,32.4,79.35,47.41,101.56,8.7,.17,17.41,.33,26.13,.47,101.39,1.63,201.29,.88,299.66-2.03,7.53-15.07,17.38-36.88,26.1-64.11,5.57-17.37,26.28-85.62,20.5-177.71-4.09-65.2-19.63-113.13-31.91-150.15Z"/><path class="cls-1" d="M75.29,637.29c-32.73,41.07-53.09,77.52-65.8,104.06-6.97,14.56-10.1,22.91-6.48,27.38,10.28,12.71,66.93-15.78,117.64-44.79"/><path class="cls-1" d="M499.37,630.98c35.29,38.89,57.94,73.97,72.32,99.63,7.89,14.08,11.54,22.21,8.22,26.91-9.45,13.35-67.8-11.47-120.27-37.17"/></svg>