<?xml version="1.0" encoding="UTF-8"?><svg id="_이어_1" xmlns="http://www.w3.org/2000/svg" viewBox="0 0 945.4 200.59"><defs><style>.cls-1{letter-spacing:-.02em;}.cls-2{letter-spacing:-.08em;}.cls-3{letter-spacing:0em;}.cls-4{font-family:GillSans-SemiBold, 'Gill Sans';font-size:136.9px;isolation:isolate;}</style></defs><text class="cls-4" transform="translate(210.41 166.36) scale(.8 1)"><tspan class="cls-2" x="0" y="0">T</tspan><tspan class="cls-3" x="80.22" y="0">ANGJIN </tspan><tspan class="cls-1" x="620.01" y="0">L</tspan><tspan x="693.01" y="0">OG</tspan></text><path d="M4.75,125.61c-5.34,27.5,32.36,64.62,71.63,64.88,40.79,.27,78.37-39.27,72.66-65.4-4.46-20.45-35.33-32.18-39.42-33.73-4.76-1.81-16.19-5.62-31.68-5.19-26.17,.72-68.17,13.66-73.18,39.45Z"/><path d="M148,50.35c-18.16-3-36.32,33.14-37.89,36.33-17.72,36.05-15.84,86.84-1.04,91.35,19.73,6.01,73.38-66.79,56.06-109.52-1.02-2.51-6.66-16.44-17.13-18.17Z"/><path d="M52.48,43.25c20.26,4.83,34.07,32.67,26.49,44.47-5.07,7.9-20.21,9.31-30.62,6.23-10.85-3.21-11.77-9.88-22.84-12.46-13.59-3.16-21.98,4.62-24.79,1.04-3.6-4.59,6.69-21.81,21.9-31.49,5.63-3.59,17.04-10.84,29.86-7.79Z"/></svg>